GREETZ: UnDeaD - BadGirl2k9 - virusofsaten - foxyb - WICCYWOLF - lizzymwah1

VISIT http://www.seedboxworld.biz/ for all ur seedbox needs!

RELEASE NAME: Group.Sex.2010.DVDRip.X264-SDTeam
RELEASED BY: UnDeaD & BadGirl2k9
SIZE: 417 MB

LANGUAGE: English
IMDb: http://www.imdb.com/title/tt1193096/

PLOT: A single guy discovers that sex addiction isn't nearly 
as exciting as it sounds after following a beautiful girl into 
a group therapy session, and gaining a whole new crop of 
dysfunctional friends in the process.  

SCREENS: 
http://i658.photobucket.com/albums/uu309/BadGirl2k9/screens/vlcsnap-2010-08-29-22h57m34s0.png 
http://i658.photobucket.com/albums/uu309/BadGirl2k9/screens/vlcsnap-2010-08-29-22h57m44s0.png 
http://i658.photobucket.com/albums/uu309/BadGirl2k9/screens/vlcsnap-2010-08-29-22h57m55s215.png

General
Format                           : MPEG-4
Format profile                   : Base Media
Codec ID                         : isom
File size                        : 418 MiB
Duration                         : 1h 32mn
Overall bit rate                 : 633 Kbps
Encoded date                     : UTC 2010-08-28 21:53:41
Tagged date                      : UTC 2010-08-28 21:53:41

Video
ID                               : 1
Format                           : AVC
Format/Info                      : Advanced Video Codec
Format profile                   : High@L2.1
Format settings, CABAC           : Yes
Format settings, ReFrames        : 4 frames
Codec ID                         : avc1
Codec ID/Info                    : Advanced Video Coding
Duration                         : 1h 32mn
Bit rate mode                    : Variable
Bit rate                         : 500 Kbps
Maximum bit rate                 : 2 026 Kbps
Width                            : 608 pixels
Height                           : 320 pixels
Display aspect ratio             : 1.900
Frame rate mode                  : Constant
Frame rate                       : 20.000 fps
Resolution                       : 8 bits
Colorimetry                      : 4:2:0
Scan type                        : Progressive
Bits/(Pixel*Frame)               : 0.128
Stream size                      : 331 MiB (79%)
Title                            : Imported with GPAC 0.4.6-DEV (internal rev. 5)
Writing library                  : x264 core 102 r1666 d058f37

Audio
ID                               : 2
Format                           : MPEG Audio
Format version                   : Version 1
Format profile                   : Layer 3
Codec ID                         : 6B
Duration                         : 1h 32mn
Bit rate mode                    : Variable
Bit rate                         : 129 Kbps
Minimum bit rate                 : 128 Kbps
Maximum bit rate                 : 147 Kbps
Channel(s)                       : 2 channels
Sampling rate                    : 48.0 KHz
Stream size                      : 85.0 MiB (20%)
Title                            : Imported with GPAC 0.4.6-DEV (internal rev. 5)
Writing library                  : LAME3.95 

GROUP NOTE: Big thanks to seedboxworld.biz for the seedbox!
